<?xml version="1.0" standalone="no"?>
<!DOCTYPE svg PUBLIC "-//W3C//DTD SVG 20010904//EN"
 "http://www.w3.org/TR/2001/REC-SVG-20010904/DTD/svg10.dtd">
<svg version="1.0" xmlns="http://www.w3.org/2000/svg"
 width="1280.000000pt" height="366.000000pt" viewBox="0 0 1280.000000 366.000000"
 preserveAspectRatio="xMidYMid meet">

<g transform="translate(0.000000,366.000000) scale(0.100000,-0.100000)"
fill="#000000" stroke="none">
<path d="M264 3129 c-98 -23 -198 -115 -224 -207 -6 -24 -10 -398 -10 -1072
l0 -1035 28 -60 c32 -67 83 -117 151 -149 46 -21 50 -21 1096 -21 l1050 0 57
28 c61 30 105 74 140 140 l23 42 0 1060 0 1060 -23 46 c-31 64 -85 117 -151
148 l-56 26 -1020 2 c-600 0 -1037 -3 -1061 -8z m809 -470 c13 -6 31 -23 40
-39 15 -25 17 -91 17 -692 0 -728 3 -690 -60 -723 -23 -12 -74 -15 -255 -15
-239 0 -275 6 -302 48 -17 27 -30 1291 -14 1349 6 23 23 51 38 62 24 20 39 21
269 21 153 0 252 -4 267 -11z m1007 -17 c25 -25 29 -38 35 -113 3 -46 5 -221
3 -387 l-3 -304 -33 -29 -32 -29 -251 0 c-152 0 -258 4 -270 10 -47 26 -49 45
-49 437 1 286 4 373 14 392 26 47 44 50 309 51 l249 0 28 -28z"/>
<path d="M8892 2053 c3 -1028 4 -1091 22 -1143 62 -186 171 -283 364 -326 54
-12 108 -15 210 -12 75 2 143 7 150 11 9 6 12 64 12 233 l0 224 -62 0 c-72 0
-121 20 -152 63 -21 28 -21 35 -24 1033 l-2 1004 -260 0 -261 0 3 -1087z"/>
<path d="M9990 2078 c0 -900 3 -1074 15 -1133 38 -179 139 -288 325 -351 45
-16 85 -19 220 -19 91 0 173 3 183 7 15 7 17 28 17 233 l0 225 -69 0 c-80 0
-125 24 -153 80 -17 33 -18 103 -18 1028 l0 992 -260 0 -260 0 0 -1062z"/>
<path d="M3590 2705 l0 -245 295 0 295 0 0 -940 0 -940 280 0 280 0 0 940 0
940 295 0 295 0 0 245 0 245 -870 0 -870 0 0 -245z"/>
<path d="M7501 2445 c-283 -64 -485 -220 -606 -469 -69 -142 -96 -260 -102
-447 -8 -237 24 -400 114 -571 45 -87 168 -215 256 -267 282 -166 764 -193
1167 -65 l80 25 0 221 c0 205 -1 220 -17 215 -298 -88 -442 -112 -623 -104
-184 8 -293 48 -374 138 -43 46 -84 129 -93 185 -6 35 -5 37 18 31 13 -3 116
-11 229 -18 500 -28 767 56 877 277 34 69 37 83 41 182 7 192 -44 320 -187
462 -71 71 -102 94 -181 132 -52 26 -122 54 -155 63 -84 24 -357 30 -444 10z
m314 -404 c114 -52 174 -163 146 -268 -30 -109 -138 -166 -341 -179 -85 -6
-317 10 -329 22 -2 2 3 38 12 79 38 177 135 299 278 349 62 21 184 20 234 -3z"/>
<path d="M11717 2450 c-441 -79 -707 -434 -707 -945 0 -512 271 -874 712 -951
136 -24 333 -15 453 21 325 96 538 353 596 720 16 103 16 317 0 420 -58 366
-262 613 -588 711 -77 23 -109 27 -253 30 -91 1 -187 -1 -213 -6z m339 -484
c144 -66 218 -224 217 -466 0 -288 -111 -461 -313 -488 -268 -37 -440 157
-440 495 1 210 79 385 202 449 93 49 239 53 334 10z"/>
<path d="M6403 2435 c-84 -23 -133 -53 -203 -124 -44 -45 -79 -93 -107 -149
l-43 -84 0 176 0 176 -260 0 -260 0 0 -925 0 -925 260 0 259 0 3 548 c3 547 3
547 26 597 61 132 175 185 400 185 l112 0 0 270 0 270 -67 -1 c-38 0 -92 -7
-120 -14z"/>
</g>
</svg>
